<?xml version="1.0" encoding="UTF-8" standalone="no"?>
<!-- Created with Inkscape (http://www.inkscape.org/) -->

<svg
   xmlns:dc="http://purl.org/dc/elements/1.1/"
   xmlns:cc="http://creativecommons.org/ns#"
   xmlns:rdf="http://www.w3.org/1999/02/22-rdf-syntax-ns#"
   xmlns:svg="http://www.w3.org/2000/svg"
   xmlns="http://www.w3.org/2000/svg"
   xmlns:sodipodi="http://sodipodi.sourceforge.net/DTD/sodipodi-0.dtd"
   xmlns:inkscape="http://www.inkscape.org/namespaces/inkscape"
   width="282.1756"
   height="279.1608"
   id="svg3111"
   version="1.1"
   inkscape:version="0.48.0 r9654"
   sodipodi:docname="Nouveau document 3">
  <defs
     id="defs3113" />
  <sodipodi:namedview
     id="base"
     pagecolor="#ffffff"
     bordercolor="#ffffff"
     borderopacity="0.0"
     inkscape:pageopacity="0.0"
     inkscape:pageshadow="0"
     inkscape:zoom="0.35"
     inkscape:cx="181.05695"
     inkscape:cy="149.13778"
     inkscape:document-units="px"
     inkscape:current-layer="layer1"
     showgrid="false"
     fit-margin-top="0"
     fit-margin-left="0"
     fit-margin-right="0"
     fit-margin-bottom="0"
     inkscape:window-width="618"
     inkscape:window-height="459"
     inkscape:window-x="9"
     inkscape:window-y="70"
     inkscape:window-maximized="0" />
  <metadata
     id="metadata3116">
    <rdf:RDF>
      <cc:Work
         rdf:about="">
        <dc:format>image/svg+xml</dc:format>
        <dc:type
           rdf:resource="http://purl.org/dc/dcmitype/StillImage" />
        <dc:title></dc:title>
      </cc:Work>
    </rdf:RDF>
  </metadata>
  <g
     inkscape:label="Layer 1"
     inkscape:groupmode="layer"
     id="layer1"
     transform="translate(-168.94305,-402.33915)">
    <g
       transform="matrix(0.98478235,0,0,0.98478235,160.08137,393.53322)"
       style="display:inline"
       id="g12379">
      <path
         inkscape:transform-center-y="-8.1973425"
         inkscape:transform-center-x="-5.2608304"
         transform="matrix(0.89971615,-0.43647548,0.43647548,0.89971615,-47.024334,81.744365)"
         d="m 155.59101,58.772034 c 0,28.377592 -5.72805,51.382176 -12.79395,51.382176 -7.06591,0 -12.79396,-23.004584 -12.79396,-51.382176 0,-28.377592 5.72805,-51.3821758 12.79396,-51.3821758 7.0659,0 12.79395,23.0045838 12.79395,51.3821758 z"
         sodipodi:ry="51.382175"
         sodipodi:rx="12.793956"
         sodipodi:cy="58.772034"
         sodipodi:cx="142.79706"
         id="path11069-5"
         style="fill:#ffffff;fill-opacity:1;fill-rule:nonzero;stroke:#000000;stroke-width:2;stroke-miterlimit:4;stroke-opacity:1;stroke-dasharray:none"
         sodipodi:type="arc" />
      <path
         inkscape:transform-center-y="-6.6565555"
         inkscape:transform-center-x="-7.1107684"
         transform="matrix(0.97929059,-0.20245969,0.20245969,0.97929059,-20.402828,32.963516)"
         d="m 155.59101,58.772034 c 0,28.377592 -5.72805,51.382176 -12.79395,51.382176 -7.06591,0 -12.79396,-23.004584 -12.79396,-51.382176 0,-28.377592 5.72805,-51.3821758 12.79396,-51.3821758 7.0659,0 12.79395,23.0045838 12.79395,51.3821758 z"
         sodipodi:ry="51.382175"
         sodipodi:rx="12.793956"
         sodipodi:cy="58.772034"
         sodipodi:cx="142.79706"
         id="path11069"
         style="fill:#ffffff;fill-opacity:1;fill-rule:nonzero;stroke:#000000;stroke-width:2;stroke-miterlimit:4;stroke-opacity:1;stroke-dasharray:none"
         sodipodi:type="arc" />
      <path
         inkscape:transform-center-y="-9.4274912"
         inkscape:transform-center-x="-2.448538"
         transform="matrix(0.71920542,-0.69479749,0.69479749,0.71920542,-63.592121,147.82082)"
         d="m 155.59101,58.772034 c 0,28.377592 -5.72805,51.382176 -12.79395,51.382176 -7.06591,0 -12.79396,-23.004584 -12.79396,-51.382176 0,-28.377592 5.72805,-51.3821758 12.79396,-51.3821758 7.0659,0 12.79395,23.0045838 12.79395,51.3821758 z"
         sodipodi:ry="51.382175"
         sodipodi:rx="12.793956"
         sodipodi:cy="58.772034"
         sodipodi:cx="142.79706"
         id="path11069-3"
         style="fill:#ffffff;fill-opacity:1;fill-rule:nonzero;stroke:#000000;stroke-width:2;stroke-miterlimit:4;stroke-opacity:1;stroke-dasharray:none"
         sodipodi:type="arc" />
      <path
         inkscape:transform-center-y="-9.7398286"
         inkscape:transform-center-x="-0.092072633"
         transform="matrix(0.52949237,-0.84831469,0.84831469,0.52949237,-53.658552,199.15198)"
         d="m 155.59101,58.772034 c 0,28.377592 -5.72805,51.382176 -12.79395,51.382176 -7.06591,0 -12.79396,-23.004584 -12.79396,-51.382176 0,-28.377592 5.72805,-51.3821758 12.79396,-51.3821758 7.0659,0 12.79395,23.0045838 12.79395,51.3821758 z"
         sodipodi:ry="51.382175"
         sodipodi:rx="12.793956"
         sodipodi:cy="58.772034"
         sodipodi:cx="142.79706"
         id="path11069-54"
         style="fill:#ffffff;fill-opacity:1;fill-rule:nonzero;stroke:#000000;stroke-width:2;stroke-miterlimit:4;stroke-opacity:1;stroke-dasharray:none"
         sodipodi:type="arc" />
      <path
         inkscape:transform-center-y="-9.5675331"
         inkscape:transform-center-x="1.8262098"
         transform="matrix(0.35221995,-0.93591725,0.93591725,0.35221995,-42.014768,235.87169)"
         d="m 155.59101,58.772034 c 0,28.377592 -5.72805,51.382176 -12.79395,51.382176 -7.06591,0 -12.79396,-23.004584 -12.79396,-51.382176 0,-28.377592 5.72805,-51.3821758 12.79396,-51.3821758 7.0659,0 12.79395,23.0045838 12.79395,51.3821758 z"
         sodipodi:ry="51.382175"
         sodipodi:rx="12.793956"
         sodipodi:cy="58.772034"
         sodipodi:cx="142.79706"
         id="path11069-9"
         style="fill:#ffffff;fill-opacity:1;fill-rule:nonzero;stroke:#000000;stroke-width:2;stroke-miterlimit:4;stroke-opacity:1;stroke-dasharray:none"
         sodipodi:type="arc" />
      <path
         inkscape:transform-center-y="-5.6305167"
         inkscape:transform-center-x="7.9479563"
         transform="matrix(-0.39483672,-0.9187513,0.9187513,-0.39483672,67.804022,340.69348)"
         d="m 155.59101,58.772034 c 0,28.377592 -5.72805,51.382176 -12.79395,51.382176 -7.06591,0 -12.79396,-23.004584 -12.79396,-51.382176 0,-28.377592 5.72805,-51.3821758 12.79396,-51.3821758 7.0659,0 12.79395,23.0045838 12.79395,51.3821758 z"
         sodipodi:ry="51.382175"
         sodipodi:rx="12.793956"
         sodipodi:cy="58.772034"
         sodipodi:cx="142.79706"
         id="path11069-92"
         style="fill:#ffffff;fill-opacity:1;fill-rule:nonzero;stroke:#000000;stroke-width:2;stroke-miterlimit:4;stroke-opacity:1;stroke-dasharray:none"
         sodipodi:type="arc" />
      <path
         inkscape:transform-center-y="-8.3283485"
         inkscape:transform-center-x="5.0508698"
         transform="matrix(0.0033881,-0.99999425,0.99999425,0.0033881,3.2830463,294.8266)"
         d="m 155.59101,58.772034 c 0,28.377592 -5.72805,51.382176 -12.79395,51.382176 -7.06591,0 -12.79396,-23.004584 -12.79396,-51.382176 0,-28.377592 5.72805,-51.3821758 12.79396,-51.3821758 7.0659,0 12.79395,23.0045838 12.79395,51.3821758 z"
         sodipodi:ry="51.382175"
         sodipodi:rx="12.793956"
         sodipodi:cy="58.772034"
         sodipodi:cx="142.79706"
         id="path11069-99"
         style="fill:#ffffff;fill-opacity:1;fill-rule:nonzero;stroke:#000000;stroke-width:2;stroke-miterlimit:4;stroke-opacity:1;stroke-dasharray:none"
         sodipodi:type="arc" />
      <path
         inkscape:transform-center-y="-8.5711896"
         inkscape:transform-center-x="4.626815"
         transform="matrix(0.05353737,-0.99856583,0.99856583,0.05353737,-5.020949,278.63845)"
         d="m 155.59101,58.772034 c 0,28.377592 -5.72805,51.382176 -12.79395,51.382176 -7.06591,0 -12.79396,-23.004584 -12.79396,-51.382176 0,-28.377592 5.72805,-51.3821758 12.79396,-51.3821758 7.0659,0 12.79395,23.0045838 12.79395,51.3821758 z"
         sodipodi:ry="51.382175"
         sodipodi:rx="12.793956"
         sodipodi:cy="58.772034"
         sodipodi:cx="142.79706"
         id="path11069-8"
         style="fill:#ffffff;fill-opacity:1;fill-rule:nonzero;stroke:#000000;stroke-width:2;stroke-miterlimit:4;stroke-opacity:1;stroke-dasharray:none"
         sodipodi:type="arc" />
      <path
         inkscape:transform-center-y="-7.5361456"
         inkscape:transform-center-x="6.1708455"
         transform="matrix(-0.13713714,-0.99055206,0.99055206,-0.13713714,25.260848,315.3234)"
         d="m 155.59101,58.772034 c 0,28.377592 -5.72805,51.382176 -12.79395,51.382176 -7.06591,0 -12.79396,-23.004584 -12.79396,-51.382176 0,-28.377592 5.72805,-51.3821758 12.79396,-51.3821758 7.0659,0 12.79395,23.0045838 12.79395,51.3821758 z"
         sodipodi:ry="51.382175"
         sodipodi:rx="12.793956"
         sodipodi:cy="58.772034"
         sodipodi:cx="142.79706"
         id="path11069-51"
         style="fill:#ffffff;fill-opacity:1;fill-rule:nonzero;stroke:#000000;stroke-width:2;stroke-miterlimit:4;stroke-opacity:1;stroke-dasharray:none"
         sodipodi:type="arc" />
      <path
         inkscape:transform-center-y="1.7179614"
         inkscape:transform-center-x="-9.5875589"
         transform="matrix(0.74793291,0.66377432,-0.66377432,0.74793291,16.401769,73.883654)"
         d="m 155.59101,58.772034 c 0,28.377592 -5.72805,51.382176 -12.79395,51.382176 -7.06591,0 -12.79396,-23.004584 -12.79396,-51.382176 0,-28.377592 5.72805,-51.3821758 12.79396,-51.3821758 7.0659,0 12.79395,23.0045838 12.79395,51.3821758 z"
         sodipodi:ry="51.382175"
         sodipodi:rx="12.793956"
         sodipodi:cy="58.772034"
         sodipodi:cx="142.79706"
         id="path11069-87"
         style="fill:#ffffff;fill-opacity:1;fill-rule:nonzero;stroke:#000000;stroke-width:2;stroke-miterlimit:4;stroke-opacity:1;stroke-dasharray:none;display:inline"
         sodipodi:type="arc" />
      <path
         inkscape:transform-center-y="4.5220869"
         inkscape:transform-center-x="-8.6269056"
         transform="matrix(0.51365565,0.85799642,-0.85799642,0.51365565,54.532132,44.975926)"
         d="m 155.59101,58.772034 c 0,28.377592 -5.72805,51.382176 -12.79395,51.382176 -7.06591,0 -12.79396,-23.004584 -12.79396,-51.382176 0,-28.377592 5.72805,-51.3821758 12.79396,-51.3821758 7.0659,0 12.79395,23.0045838 12.79395,51.3821758 z"
         sodipodi:ry="51.382175"
         sodipodi:rx="12.793956"
         sodipodi:cy="58.772034"
         sodipodi:cx="142.79706"
         id="path11069-52"
         style="fill:#ffffff;fill-opacity:1;fill-rule:nonzero;stroke:#000000;stroke-width:2;stroke-miterlimit:4;stroke-opacity:1;stroke-dasharray:none;display:inline"
         sodipodi:type="arc" />
      <path
         inkscape:transform-center-y="-3.1366452"
         inkscape:transform-center-x="-9.221398"
         transform="matrix(0.97574943,0.21889045,-0.21889045,0.97574943,-1.784535,152.59727)"
         d="m 155.59101,58.772034 c 0,28.377592 -5.72805,51.382176 -12.79395,51.382176 -7.06591,0 -12.79396,-23.004584 -12.79396,-51.382176 0,-28.377592 5.72805,-51.3821758 12.79396,-51.3821758 7.0659,0 12.79395,23.0045838 12.79395,51.3821758 z"
         sodipodi:ry="51.382175"
         sodipodi:rx="12.793956"
         sodipodi:cy="58.772034"
         sodipodi:cx="142.79706"
         id="path11069-53"
         style="fill:#ffffff;fill-opacity:1;fill-rule:nonzero;stroke:#000000;stroke-width:2;stroke-miterlimit:4;stroke-opacity:1;stroke-dasharray:none;display:inline"
         sodipodi:type="arc" />
      <path
         inkscape:transform-center-y="1.7318295"
         inkscape:transform-center-x="-9.5850674"
         transform="matrix(0.7469719,0.6648556,-0.6648556,0.7469719,29.80672,84.117298)"
         d="m 155.59101,58.772034 c 0,28.377592 -5.72805,51.382176 -12.79395,51.382176 -7.06591,0 -12.79396,-23.004584 -12.79396,-51.382176 0,-28.377592 5.72805,-51.3821758 12.79396,-51.3821758 7.0659,0 12.79395,23.0045838 12.79395,51.3821758 z"
         sodipodi:ry="51.382175"
         sodipodi:rx="12.793956"
         sodipodi:cy="58.772034"
         sodipodi:cx="142.79706"
         id="path11069-1"
         style="fill:#ffffff;fill-opacity:1;fill-rule:nonzero;stroke:#000000;stroke-width:2;stroke-miterlimit:4;stroke-opacity:1;stroke-dasharray:none;display:inline"
         sodipodi:type="arc" />
      <path
         inkscape:transform-center-y="-1.8935923"
         inkscape:transform-center-x="-9.5544262"
         transform="matrix(0.93837631,0.34561524,-0.34561524,0.93837631,-1.873525,122.25799)"
         d="m 155.59101,58.772034 c 0,28.377592 -5.72805,51.382176 -12.79395,51.382176 -7.06591,0 -12.79396,-23.004584 -12.79396,-51.382176 0,-28.377592 5.72805,-51.3821758 12.79396,-51.3821758 7.0659,0 12.79395,23.0045838 12.79395,51.3821758 z"
         sodipodi:ry="51.382175"
         sodipodi:rx="12.793956"
         sodipodi:cy="58.772034"
         sodipodi:cx="142.79706"
         id="path11069-7"
         style="fill:#ffffff;fill-opacity:1;fill-rule:nonzero;stroke:#000000;stroke-width:2;stroke-miterlimit:4;stroke-opacity:1;stroke-dasharray:none;display:inline"
         sodipodi:type="arc" />
      <path
         inkscape:transform-center-y="-8.6764593"
         inkscape:transform-center-x="-4.4262637"
         transform="matrix(0.8522549,-0.52312673,0.52312673,0.8522549,-61.031741,107.1586)"
         d="m 155.59101,58.772034 c 0,28.377592 -5.72805,51.382176 -12.79395,51.382176 -7.06591,0 -12.79396,-23.004584 -12.79396,-51.382176 0,-28.377592 5.72805,-51.3821758 12.79396,-51.3821758 7.0659,0 12.79395,23.0045838 12.79395,51.3821758 z"
         sodipodi:ry="51.382175"
         sodipodi:rx="12.793956"
         sodipodi:cy="58.772034"
         sodipodi:cx="142.79706"
         id="path11069-39"
         style="fill:#ffffff;fill-opacity:1;fill-rule:nonzero;stroke:#000000;stroke-width:2;stroke-miterlimit:4;stroke-opacity:1;stroke-dasharray:none;display:inline"
         sodipodi:type="arc" />
      <path
         inkscape:transform-center-y="-4.3422695"
         inkscape:transform-center-x="-8.7188019"
         transform="matrix(0.9962634,0.08636681,-0.08636681,0.9962634,20.01151,-7.941845)"
         d="m 155.59101,58.772034 c 0,28.377592 -5.72805,51.382176 -12.79395,51.382176 -7.06591,0 -12.79396,-23.004584 -12.79396,-51.382176 0,-28.377592 5.72805,-51.3821758 12.79396,-51.3821758 7.0659,0 12.79395,23.0045838 12.79395,51.3821758 z"
         sodipodi:ry="51.382175"
         sodipodi:rx="12.793956"
         sodipodi:cy="58.772034"
         sodipodi:cx="142.79706"
         id="path11069-6"
         style="fill:#ffffff;fill-opacity:1;fill-rule:nonzero;stroke:#000000;stroke-width:2;stroke-miterlimit:4;stroke-opacity:1;stroke-dasharray:none;display:inline"
         sodipodi:type="arc" />
      <path
         inkscape:transform-center-y="-5.6813892"
         inkscape:transform-center-x="-7.9116739"
         transform="matrix(0.99724674,-0.07415473,0.07415473,0.99724674,-5.22771,13.170538)"
         d="m 155.59101,58.772034 c 0,28.377592 -5.72805,51.382176 -12.79395,51.382176 -7.06591,0 -12.79396,-23.004584 -12.79396,-51.382176 0,-28.377592 5.72805,-51.3821758 12.79396,-51.3821758 7.0659,0 12.79395,23.0045838 12.79395,51.3821758 z"
         sodipodi:ry="51.382175"
         sodipodi:rx="12.793956"
         sodipodi:cy="58.772034"
         sodipodi:cx="142.79706"
         id="path11069-16"
         style="fill:#ffffff;fill-opacity:1;fill-rule:nonzero;stroke:#000000;stroke-width:2;stroke-miterlimit:4;stroke-opacity:1;stroke-dasharray:none;display:inline"
         sodipodi:type="arc" />
      <path
         inkscape:transform-center-y="0.12585865"
         inkscape:transform-center-x="-9.739452"
         transform="matrix(0.84647288,0.53243183,-0.53243183,0.84647288,103.71816,-51.350955)"
         d="m 155.59101,58.772034 c 0,28.377592 -5.72805,51.382176 -12.79395,51.382176 -7.06591,0 -12.79396,-23.004584 -12.79396,-51.382176 0,-28.377592 5.72805,-51.3821758 12.79396,-51.3821758 7.0659,0 12.79395,23.0045838 12.79395,51.3821758 z"
         sodipodi:ry="51.382175"
         sodipodi:rx="12.793956"
         sodipodi:cy="58.772034"
         sodipodi:cx="142.79706"
         id="path11069-2"
         style="fill:#ffffff;fill-opacity:1;fill-rule:nonzero;stroke:#000000;stroke-width:2;stroke-miterlimit:4;stroke-opacity:1;stroke-dasharray:none;display:inline"
         sodipodi:type="arc" />
      <path
         inkscape:transform-center-y="4.6580246"
         inkscape:transform-center-x="-8.5542766"
         transform="matrix(0.50001514,0.86601665,-0.86601665,0.50001514,204.62824,-55.519824)"
         d="m 155.59101,58.772034 c 0,28.377592 -5.72805,51.382176 -12.79395,51.382176 -7.06591,0 -12.79396,-23.004584 -12.79396,-51.382176 0,-28.377592 5.72805,-51.3821758 12.79396,-51.3821758 7.0659,0 12.79395,23.0045838 12.79395,51.3821758 z"
         sodipodi:ry="51.382175"
         sodipodi:rx="12.793956"
         sodipodi:cy="58.772034"
         sodipodi:cx="142.79706"
         id="path11069-242"
         style="fill:#ffffff;fill-opacity:1;fill-rule:nonzero;stroke:#000000;stroke-width:2;stroke-miterlimit:4;stroke-opacity:1;stroke-dasharray:none;display:inline"
         sodipodi:type="arc" />
      <path
         inkscape:transform-center-y="-2.3850059"
         inkscape:transform-center-x="-9.443755"
         transform="matrix(0.95498911,0.29664083,-0.29664083,0.95498911,54.671455,-32.759902)"
         d="m 155.59101,58.772034 c 0,28.377592 -5.72805,51.382176 -12.79395,51.382176 -7.06591,0 -12.79396,-23.004584 -12.79396,-51.382176 0,-28.377592 5.72805,-51.3821758 12.79396,-51.3821758 7.0659,0 12.79395,23.0045838 12.79395,51.3821758 z"
         sodipodi:ry="51.382175"
         sodipodi:rx="12.793956"
         sodipodi:cy="58.772034"
         sodipodi:cx="142.79706"
         id="path11069-0"
         style="fill:#ffffff;fill-opacity:1;fill-rule:nonzero;stroke:#000000;stroke-width:2;stroke-miterlimit:4;stroke-opacity:1;stroke-dasharray:none;display:inline"
         sodipodi:type="arc" />
      <path
         inkscape:transform-center-y="-9.7068697"
         inkscape:transform-center-x="0.80583503"
         transform="matrix(0.44906818,-0.89349749,0.89349749,0.44906818,107.38715,298.27046)"
         d="m 155.59101,58.772034 c 0,28.377592 -5.72805,51.382176 -12.79395,51.382176 -7.06591,0 -12.79396,-23.004584 -12.79396,-51.382176 0,-28.377592 5.72805,-51.3821758 12.79396,-51.3821758 7.0659,0 12.79395,23.0045838 12.79395,51.3821758 z"
         sodipodi:ry="51.382175"
         sodipodi:rx="12.793956"
         sodipodi:cy="58.772034"
         sodipodi:cx="142.79706"
         id="path11069-249"
         style="fill:#ffffff;fill-opacity:1;fill-rule:nonzero;stroke:#000000;stroke-width:2;stroke-miterlimit:4;stroke-opacity:1;stroke-dasharray:none;display:inline"
         sodipodi:type="arc" />
      <path
         inkscape:transform-center-y="-9.1135977"
         inkscape:transform-center-x="3.4373353"
         transform="matrix(0.18677837,-0.98240207,0.98240207,0.18677837,151.42954,293.54497)"
         d="m 155.59101,58.772034 c 0,28.377592 -5.72805,51.382176 -12.79395,51.382176 -7.06591,0 -12.79396,-23.004584 -12.79396,-51.382176 0,-28.377592 5.72805,-51.3821758 12.79396,-51.3821758 7.0659,0 12.79395,23.0045838 12.79395,51.3821758 z"
         sodipodi:ry="51.382175"
         sodipodi:rx="12.793956"
         sodipodi:cy="58.772034"
         sodipodi:cx="142.79706"
         id="path11069-73"
         style="fill:#ffffff;fill-opacity:1;fill-rule:nonzero;stroke:#000000;stroke-width:2;stroke-miterlimit:4;stroke-opacity:1;stroke-dasharray:none;display:inline"
         sodipodi:type="arc" />
      <path
         inkscape:transform-center-y="-8.0117287"
         inkscape:transform-center-x="5.5393958"
         transform="matrix(-0.05635894,-0.99841057,0.99841057,-0.05635894,192.59821,284.80916)"
         d="m 155.59101,58.772034 c 0,28.377592 -5.72805,51.382176 -12.79395,51.382176 -7.06591,0 -12.79396,-23.004584 -12.79396,-51.382176 0,-28.377592 5.72805,-51.3821758 12.79396,-51.3821758 7.0659,0 12.79395,23.0045838 12.79395,51.3821758 z"
         sodipodi:ry="51.382175"
         sodipodi:rx="12.793956"
         sodipodi:cy="58.772034"
         sodipodi:cx="142.79706"
         id="path11069-24"
         style="fill:#ffffff;fill-opacity:1;fill-rule:nonzero;stroke:#000000;stroke-width:2;stroke-miterlimit:4;stroke-opacity:1;stroke-dasharray:none;display:inline"
         sodipodi:type="arc" />
      <path
         inkscape:transform-center-y="6.9177089"
         inkscape:transform-center-x="-6.8569758"
         transform="matrix(0.23035239,0.97310727,-0.97310727,0.23035239,255.57338,-31.655616)"
         d="m 155.59101,58.772034 c 0,28.377592 -5.72805,51.382176 -12.79395,51.382176 -7.06591,0 -12.79396,-23.004584 -12.79396,-51.382176 0,-28.377592 5.72805,-51.3821758 12.79396,-51.3821758 7.0659,0 12.79395,23.0045838 12.79395,51.3821758 z"
         sodipodi:ry="51.382175"
         sodipodi:rx="12.793956"
         sodipodi:cy="58.772034"
         sodipodi:cx="142.79706"
         id="path11069-86"
         style="fill:#ffffff;fill-opacity:1;fill-rule:nonzero;stroke:#000000;stroke-width:2;stroke-miterlimit:4;stroke-opacity:1;stroke-dasharray:none;display:inline"
         sodipodi:type="arc" />
      <path
         inkscape:transform-center-y="3.4106104"
         inkscape:transform-center-x="-9.1236207"
         transform="matrix(0.61667343,0.78721908,-0.78721908,0.61667343,172.76491,-57.32392)"
         d="m 155.59101,58.772034 c 0,28.377592 -5.72805,51.382176 -12.79395,51.382176 -7.06591,0 -12.79396,-23.004584 -12.79396,-51.382176 0,-28.377592 5.72805,-51.3821758 12.79396,-51.3821758 7.0659,0 12.79395,23.0045838 12.79395,51.3821758 z"
         sodipodi:ry="51.382175"
         sodipodi:rx="12.793956"
         sodipodi:cy="58.772034"
         sodipodi:cx="142.79706"
         id="path11069-4"
         style="fill:#ffffff;fill-opacity:1;fill-rule:nonzero;stroke:#000000;stroke-width:2;stroke-miterlimit:4;stroke-opacity:1;stroke-dasharray:none;display:inline"
         sodipodi:type="arc" />
      <path
         inkscape:transform-center-y="-9.6310047"
         inkscape:transform-center-x="1.4548354"
         transform="matrix(0.38815164,-0.92159552,0.92159552,0.38815164,122.45234,294.7957)"
         d="m 155.59101,58.772034 c 0,28.377592 -5.72805,51.382176 -12.79395,51.382176 -7.06591,0 -12.79396,-23.004584 -12.79396,-51.382176 0,-28.377592 5.72805,-51.3821758 12.79396,-51.3821758 7.0659,0 12.79395,23.0045838 12.79395,51.3821758 z"
         sodipodi:ry="51.382175"
         sodipodi:rx="12.793956"
         sodipodi:cy="58.772034"
         sodipodi:cx="142.79706"
         id="path11069-98"
         style="fill:#ffffff;fill-opacity:1;fill-rule:nonzero;stroke:#000000;stroke-width:2;stroke-miterlimit:4;stroke-opacity:1;stroke-dasharray:none;display:inline"
         sodipodi:type="arc" />
      <path
         inkscape:transform-center-y="-9.5540272"
         inkscape:transform-center-x="-1.8956143"
         transform="matrix(0.677542,-0.73548407,0.73548407,0.677542,73.130607,272.74928)"
         d="m 155.59101,58.772034 c 0,28.377592 -5.72805,51.382176 -12.79395,51.382176 -7.06591,0 -12.79396,-23.004584 -12.79396,-51.382176 0,-28.377592 5.72805,-51.3821758 12.79396,-51.3821758 7.0659,0 12.79395,23.0045838 12.79395,51.3821758 z"
         sodipodi:ry="51.382175"
         sodipodi:rx="12.793956"
         sodipodi:cy="58.772034"
         sodipodi:cx="142.79706"
         id="path11069-65"
         style="fill:#ffffff;fill-opacity:1;fill-rule:nonzero;stroke:#000000;stroke-width:2;stroke-miterlimit:4;stroke-opacity:1;stroke-dasharray:none;display:inline"
         sodipodi:type="arc" />
      <path
         inkscape:transform-center-y="-6.6565555"
         inkscape:transform-center-x="-7.1107684"
         transform="matrix(0.97929059,-0.20245969,0.20245969,0.97929059,16.646178,207.38597)"
         d="m 155.59101,58.772034 c 0,28.377592 -5.72805,51.382176 -12.79395,51.382176 -7.06591,0 -12.79396,-23.004584 -12.79396,-51.382176 0,-28.377592 5.72805,-51.3821758 12.79396,-51.3821758 7.0659,0 12.79395,23.0045838 12.79395,51.3821758 z"
         sodipodi:ry="51.382175"
         sodipodi:rx="12.793956"
         sodipodi:cy="58.772034"
         sodipodi:cx="142.79706"
         id="path11069-22"
         style="fill:#ffffff;fill-opacity:1;fill-rule:nonzero;stroke:#000000;stroke-width:2;stroke-miterlimit:4;stroke-opacity:1;stroke-dasharray:none;display:inline"
         sodipodi:type="arc" />
      <path
         inkscape:transform-center-y="-8.2667237"
         inkscape:transform-center-x="-5.1511151"
         transform="matrix(0.89381923,-0.44842745,0.44842745,0.89381923,35.547219,236.84302)"
         d="m 155.59101,58.772034 c 0,28.377592 -5.72805,51.382176 -12.79395,51.382176 -7.06591,0 -12.79396,-23.004584 -12.79396,-51.382176 0,-28.377592 5.72805,-51.3821758 12.79396,-51.3821758 7.0659,0 12.79395,23.0045838 12.79395,51.3821758 z"
         sodipodi:ry="51.382175"
         sodipodi:rx="12.793956"
         sodipodi:cy="58.772034"
         sodipodi:cx="142.79706"
         id="path11069-25"
         style="fill:#ffffff;fill-opacity:1;fill-rule:nonzero;stroke:#000000;stroke-width:2;stroke-miterlimit:4;stroke-opacity:1;stroke-dasharray:none;display:inline"
         sodipodi:type="arc" />
      <path
         inkscape:transform-center-y="-5.2747622"
         inkscape:transform-center-x="-8.1883828"
         transform="matrix(0.99971865,-0.02371921,0.02371921,0.99971865,4.676256,183.28168)"
         d="m 155.59101,58.772034 c 0,28.377592 -5.72805,51.382176 -12.79395,51.382176 -7.06591,0 -12.79396,-23.004584 -12.79396,-51.382176 0,-28.377592 5.72805,-51.3821758 12.79396,-51.3821758 7.0659,0 12.79395,23.0045838 12.79395,51.3821758 z"
         sodipodi:ry="51.382175"
         sodipodi:rx="12.793956"
         sodipodi:cy="58.772034"
         sodipodi:cx="142.79706"
         id="path11069-542"
         style="fill:#ffffff;fill-opacity:1;fill-rule:nonzero;stroke:#000000;stroke-width:2;stroke-miterlimit:4;stroke-opacity:1;stroke-dasharray:none;display:inline"
         sodipodi:type="arc" />
      <path
         transform="translate(-6.1906236,-6.1906236)"
         d="m 200.16349,155.96483 c 0,25.9843 -20.97205,47.04874 -46.84238,47.04874 -25.87034,0 -46.84239,-21.06444 -46.84239,-47.04874 0,-25.9843 20.97205,-47.04874 46.84239,-47.04874 25.87033,0 46.84238,21.06444 46.84238,47.04874 z"
         sodipodi:ry="47.04874"
         sodipodi:rx="46.842384"
         sodipodi:cy="155.96483"
         sodipodi:cx="153.32111"
         id="path11067"
         style="fill:#fcef3c;fill-opacity:1;fill-rule:nonzero;stroke:#000000;stroke-width:2;stroke-miterlimit:4;stroke-opacity:1;stroke-dasharray:none"
         sodipodi:type="arc" />
    </g>
  </g>
</svg>
