<?xml version="1.0" standalone="no"?>
<!DOCTYPE svg PUBLIC "-//W3C//DTD SVG 20010904//EN"
 "http://www.w3.org/TR/2001/REC-SVG-20010904/DTD/svg10.dtd">
<svg version="1.0" xmlns="http://www.w3.org/2000/svg"
 width="1990.000000pt" height="2114.000000pt" viewBox="0 0 1990.000000 2114.000000"
 preserveAspectRatio="xMidYMid meet">
<metadata>
Created by potrace 1.15, written by Peter Selinger 2001-2017
</metadata>
<g transform="translate(0.000000,2114.000000) scale(0.100000,-0.100000)"
fill="#000000" stroke="none">
<path d="M10160 21123 c-96 -8 -273 -44 -376 -78 -197 -65 -339 -142 -554
-303 -141 -106 -342 -223 -650 -377 -1035 -518 -1478 -765 -1970 -1095 -769
-518 -1324 -1083 -1612 -1644 -186 -361 -276 -606 -494 -1341 -300 -1009 -477
-1464 -760 -1945 -313 -534 -555 -993 -776 -1470 -597 -1287 -992 -2577 -1207
-3935 -56 -355 -80 -548 -121 -985 -11 -118 -23 -233 -25 -255 -3 -22 -11
-101 -20 -175 -8 -74 -20 -166 -25 -205 -6 -38 -15 -104 -21 -145 -74 -514
-194 -990 -354 -1415 -96 -254 -379 -980 -633 -1625 -137 -349 -280 -711 -317
-805 -211 -537 -237 -629 -237 -836 1 -327 157 -638 491 -982 273 -280 865
-658 1454 -929 604 -276 1314 -470 1972 -538 61 -6 120 -13 133 -15 47 -8 261
-19 342 -18 47 1 164 2 260 3 159 1 182 4 245 26 39 13 97 32 130 40 58 16
206 91 225 115 10 12 144 91 209 123 36 18 84 45 105 59 29 20 51 27 86 27 45
0 51 3 106 60 32 33 64 60 71 60 7 0 13 4 13 9 0 5 28 30 61 55 77 58 94 79
124 159 13 36 51 120 83 188 107 222 137 300 159 409 3 14 15 52 28 85 13 33
28 92 34 130 6 39 17 99 25 135 24 104 35 167 51 300 30 240 34 287 45 580 6
162 12 304 12 315 1 11 7 99 14 195 8 96 14 186 14 200 0 40 49 106 90 125 43
20 105 18 140 -3 14 -9 44 -37 68 -63 93 -103 80 -98 507 -201 l390 -93 290
-3 c281 -4 351 1 470 30 56 14 74 17 124 24 24 3 56 11 70 18 36 18 130 34
232 40 66 4 96 11 134 30 53 28 145 35 227 16 24 -5 97 -14 163 -20 106 -11
287 -48 315 -65 6 -4 38 -6 70 -6 33 0 76 -7 95 -15 19 -7 50 -14 68 -14 19 0
96 -16 172 -35 130 -33 150 -35 324 -37 190 -3 285 7 353 36 21 9 57 16 81 16
31 0 49 6 62 20 39 43 120 63 275 67 89 2 159 9 180 18 32 12 74 23 154 40 17
4 41 14 55 24 48 34 183 101 202 101 11 0 61 20 112 44 52 25 113 47 142 50
28 3 77 11 110 17 128 23 141 23 183 -1 38 -21 82 -82 82 -112 0 -7 15 -52 34
-98 26 -66 35 -105 40 -175 7 -126 24 -259 36 -290 6 -15 10 -50 10 -80 0 -45
11 -77 71 -207 95 -204 101 -219 188 -477 52 -153 68 -178 181 -292 58 -59
116 -125 130 -147 14 -22 36 -48 50 -57 14 -9 51 -53 83 -96 31 -44 65 -82 75
-85 34 -10 102 -47 102 -56 0 -4 26 -25 58 -45 31 -20 61 -43 65 -50 11 -18
91 -53 121 -53 12 0 43 -13 67 -29 25 -16 63 -36 85 -45 78 -34 149 -72 188
-101 23 -17 61 -37 86 -44 25 -7 77 -24 115 -37 39 -13 99 -28 135 -34 150
-21 267 -41 300 -50 19 -5 58 -14 85 -21 28 -6 79 -22 115 -34 58 -20 74 -21
149 -13 54 6 94 6 110 -1 55 -21 133 -31 311 -41 258 -14 332 -12 434 10 50
11 101 20 113 20 14 0 39 16 62 39 66 67 199 126 410 181 685 179 1198 410
1699 767 79 56 158 108 176 114 26 9 40 26 68 83 20 39 43 87 52 108 8 20 35
63 59 95 24 32 66 94 92 138 27 44 61 96 77 115 15 19 28 40 28 46 0 7 4 14 8
16 10 4 112 158 136 205 9 18 16 38 16 45 0 7 11 40 25 73 13 33 25 68 25 78
0 11 6 33 14 50 7 18 20 50 29 72 8 22 28 74 45 115 16 41 35 89 41 105 7 17
23 44 37 60 14 17 37 51 50 76 23 46 94 316 94 359 0 12 11 53 24 89 13 37 27
89 31 117 4 27 16 83 27 124 16 58 22 124 28 291 4 120 11 223 15 230 5 7 12
29 16 48 4 20 21 101 38 181 22 101 31 171 31 235 0 70 5 106 22 151 19 52 22
86 27 274 5 161 3 234 -8 290 -22 117 -20 563 2 775 21 192 30 696 17 885 -20
278 -38 431 -76 665 -52 315 -106 538 -250 1017 -309 1034 -624 2010 -951
2947 -202 581 -267 809 -347 1213 -58 290 -87 512 -136 1048 -23 253 -88 485
-193 693 -124 244 -214 349 -622 718 -302 275 -773 738 -960 944 -340 375
-512 644 -875 1367 -110 218 -225 438 -256 490 -200 332 -477 631 -818 883
-61 44 -219 150 -351 235 -424 271 -814 540 -1154 797 -255 194 -407 291 -621
398 -544 273 -1207 419 -1720 378z m206 -453 c43 -11 117 -38 164 -60 83 -38
152 -52 265 -53 58 0 145 18 182 39 31 18 36 18 153 1 423 -61 779 -220 1115
-496 61 -50 113 -91 116 -91 11 0 76 -104 88 -142 9 -27 25 -45 61 -68 50 -32
103 -90 140 -152 14 -25 50 -53 128 -98 200 -118 360 -226 565 -383 27 -20 55
-37 62 -37 8 0 49 -12 92 -26 85 -28 163 -45 163 -34 0 3 -6 12 -12 19 -42 43
197 -71 312 -149 169 -116 325 -292 464 -524 36 -60 118 -213 182 -339 l117
-230 -34 -28 -34 -28 -28 32 -27 32 6 -30 c4 -16 11 -41 16 -54 5 -13 6 -81 2
-150 l-6 -126 82 -180 c180 -396 495 -1186 511 -1280 l12 -70 -51 -105 c-80
-165 -86 -213 -78 -580 7 -339 -3 -491 -65 -915 -87 -604 -213 -1091 -492
-1900 -330 -958 -383 -1189 -482 -2100 -73 -669 -158 -1155 -270 -1550 -144
-505 -181 -896 -131 -1377 36 -339 5 -579 -104 -805 -68 -143 -120 -213 -290
-388 -199 -206 -230 -268 -385 -750 -42 -132 -115 -390 -161 -573 -137 -544
-176 -641 -305 -771 -145 -147 -635 -390 -994 -494 -287 -83 -477 -111 -775
-111 -326 -1 -577 40 -877 145 -378 131 -427 142 -618 142 -147 0 -233 -14
-342 -54 -493 -182 -794 -248 -1083 -236 -147 6 -236 22 -371 67 -252 84 -539
282 -834 575 -127 126 -193 216 -219 300 -8 28 -28 181 -43 340 -22 237 -27
342 -27 575 -1 275 1 292 31 470 112 652 133 1245 62 1775 -45 336 -106 585
-249 1017 -8 25 -2 22 88 -34 189 -119 293 -151 359 -109 48 30 88 119 137
304 24 89 64 227 89 307 87 277 81 405 -24 525 -44 50 -159 124 -237 151 -119
42 -212 29 -291 -42 -59 -53 -87 -105 -149 -274 -50 -140 -97 -229 -112 -214
-14 14 -67 183 -87 276 -16 75 -18 147 -19 718 0 349 -4 669 -8 710 -26 270
-65 466 -128 648 -104 303 -269 674 -408 916 -88 155 -204 395 -266 551 -26
66 -122 347 -214 625 -92 278 -194 570 -226 650 -57 142 -58 147 -58 240 0 78
10 136 53 325 244 1067 485 1843 771 2490 189 427 422 701 912 1072 749 565
1476 1004 2303 1388 320 149 506 255 939 535 235 152 399 230 547 259 85 17
240 12 325 -9z m4983 -4221 c86 -23 135 -58 531 -374 592 -473 1000 -888 1207
-1227 143 -234 238 -497 277 -768 9 -58 20 -213 25 -345 14 -347 46 -557 137
-916 55 -219 104 -378 337 -1094 557 -1713 806 -2511 1038 -3324 103 -359 139
-505 168 -674 68 -390 77 -867 25 -1307 -44 -380 -58 -513 -104 -1018 -76
-836 -107 -1078 -175 -1380 -178 -786 -520 -1441 -1024 -1955 -498 -509 -1116
-820 -1846 -926 -610 -90 -1102 -24 -1575 210 -285 141 -483 289 -760 568
-214 214 -322 352 -408 520 -109 212 -146 361 -147 591 0 221 27 345 126 577
48 114 64 190 79 383 41 544 152 928 392 1358 436 782 661 1419 804 2282 78
474 123 666 307 1310 127 445 140 512 141 730 0 193 -9 254 -74 513 -80 316
-95 435 -95 752 0 377 14 463 173 1020 164 573 270 992 347 1365 44 214 135
751 169 995 100 722 77 1195 -89 1790 -24 88 -49 192 -55 230 -5 39 -12 85
-15 103 -3 17 -3 32 1 32 4 0 42 -9 83 -21z m-11401 -3129 c28 -111 37 -176
72 -575 79 -893 74 -778 75 -1640 1 -996 -1 -971 169 -1595 101 -372 141 -535
211 -870 60 -282 72 -384 57 -489 -12 -82 -52 -215 -71 -234 -21 -21 -305 261
-431 428 -139 185 -243 375 -341 621 -66 168 -82 197 -126 233 -31 25 -156 83
-201 93 -10 2 -24 -37 -47 -132 -49 -194 -47 -238 16 -447 112 -373 369 -1106
444 -1268 50 -109 111 -182 370 -440 234 -235 243 -245 384 -449 376 -546 831
-1238 907 -1381 45 -84 233 -632 298 -870 146 -535 203 -981 193 -1520 -12
-653 -126 -1176 -372 -1701 -161 -345 -413 -528 -889 -645 -200 -49 -328 -63
-561 -63 -441 0 -772 74 -1585 356 -455 158 -583 209 -845 338 -382 189 -656
380 -910 636 -218 219 -336 442 -367 690 -13 111 -2 237 32 369 47 176 308
744 520 1130 410 747 722 1547 920 2360 85 349 130 621 195 1195 19 173 49
425 65 560 16 135 50 441 75 680 82 781 127 1088 221 1511 197 887 465 1626
820 2259 130 232 275 498 414 758 l125 232 65 -2 65 -3 33 -125z m1835 -5167
c135 -291 184 -539 174 -893 -6 -220 -24 -363 -97 -780 -28 -156 -58 -349 -67
-427 -10 -79 -21 -143 -26 -143 -24 0 -127 61 -172 102 -96 87 -124 169 -149
423 -84 848 -4 1443 235 1763 22 28 43 52 48 52 4 0 29 -44 54 -97z"/>
<path d="M13331 17920 c-9 -5 -12 -36 -9 -117 l3 -110 79 -118 c156 -235 352
-485 444 -565 40 -36 348 -198 357 -188 6 7 -167 445 -209 529 -85 168 -234
386 -354 519 l-49 55 -125 2 c-69 1 -130 -2 -137 -7z"/>
<path d="M5942 17764 c-29 -14 -67 -45 -86 -67 -39 -49 -413 -631 -512 -797
-66 -112 -68 -117 -68 -185 -1 -39 5 -85 13 -103 18 -42 76 -73 150 -79 49 -5
68 0 146 32 161 67 309 165 389 258 126 149 169 288 226 731 11 87 23 168 26
180 4 19 -2 24 -49 39 -82 26 -172 22 -235 -9z"/>
<path d="M9239 17378 c-36 -62 -70 -126 -77 -141 -14 -33 -15 -1095 -1 -1322
16 -256 48 -480 95 -655 29 -109 50 -148 130 -243 l57 -68 29 28 30 28 -6 890
c-3 490 -8 917 -11 950 -3 33 -10 119 -15 192 -12 154 -17 169 -102 331 l-65
122 -64 -112z"/>
<path d="M6325 16574 c-62 -15 -173 -59 -228 -91 -110 -64 -171 -119 -399
-355 -122 -128 -311 -322 -419 -433 -245 -249 -263 -276 -434 -645 -82 -178
-93 -229 -70 -328 46 -195 166 -322 304 -322 104 0 169 52 306 245 89 125 158
262 194 385 82 278 187 415 491 644 363 273 657 396 953 396 l67 0 0 45 0 45
-102 66 c-75 48 -134 97 -215 180 -143 146 -183 167 -328 170 -55 2 -109 1
-120 -2z"/>
<path d="M12355 16460 c46 -92 120 -166 205 -208 36 -18 127 -48 202 -67 76
-20 168 -49 204 -66 125 -55 331 -128 485 -170 115 -31 185 -57 279 -104 69
-34 142 -68 163 -75 61 -19 172 -9 237 22 104 49 104 48 19 105 -586 393
-1160 607 -1687 630 l-144 6 37 -73z"/>
<path d="M11195 16399 c-62 -3 -111 -11 -130 -21 -40 -22 -446 -433 -524 -532
-97 -123 -159 -220 -212 -330 -72 -152 -84 -205 -84 -381 0 -138 2 -156 27
-227 38 -107 101 -209 179 -288 62 -62 194 -160 217 -160 30 0 29 187 -4 426
-37 270 -25 404 47 521 12 19 171 227 354 463 l333 429 -20 55 c-20 52 -23 56
-52 53 -17 -1 -76 -5 -131 -8z"/>
<path d="M8195 15634 c-34 -81 -47 -154 -52 -294 -5 -126 -3 -156 15 -227 36
-141 84 -193 180 -193 55 0 92 22 117 70 48 92 4 340 -86 493 -44 73 -134 187
-149 187 -5 0 -17 -16 -25 -36z"/>
<path d="M12579 15046 c-114 -73 -222 -145 -240 -160 -98 -81 -181 -223 -250
-426 -35 -103 -42 -139 -43 -205 -1 -97 13 -129 119 -261 87 -108 103 -138
143 -269 80 -258 180 -315 399 -227 54 22 157 56 228 77 143 40 389 129 504
182 167 76 348 228 401 339 33 68 37 145 11 214 -55 146 -235 302 -766 665
-143 98 -267 184 -276 191 -8 8 -17 14 -20 13 -2 0 -97 -60 -210 -133z"/>
<path d="M6359 14776 c-79 -17 -180 -62 -233 -105 -99 -80 -541 -694 -591
-821 -23 -60 -21 -161 5 -290 50 -244 164 -410 349 -509 78 -41 361 -145 451
-165 104 -24 211 -23 282 2 79 28 135 69 216 160 55 60 90 88 159 126 114 64
212 160 253 248 35 76 60 180 60 258 0 66 -24 234 -40 275 -6 15 -13 55 -16
87 -16 188 -138 454 -262 576 -58 56 -158 111 -257 140 -100 30 -277 38 -376
18z"/>
<path d="M9870 14261 c0 -5 9 -52 20 -106 l20 -97 137 -176 c248 -320 314
-394 490 -548 160 -139 266 -256 355 -388 75 -113 115 -192 193 -381 115 -281
240 -471 451 -684 l124 -125 100 153 c55 83 100 154 100 157 0 5 -217 365
-310 514 -211 340 -484 647 -825 930 -171 143 -210 181 -345 340 -176 209
-302 319 -442 391 -63 32 -68 33 -68 20z"/>
<path d="M8153 13389 c-93 -46 -209 -192 -389 -489 -208 -342 -468 -914 -711
-1565 -77 -204 -77 -291 -4 -393 37 -50 138 -129 151 -116 28 29 206 405 259
549 122 328 203 522 311 740 115 234 220 403 355 576 95 120 138 194 194 330
49 123 65 189 58 250 -14 116 -117 171 -224 118z"/>
<path d="M13965 13132 c-61 -21 -128 -66 -365 -246 -168 -127 -372 -266 -753
-510 l-137 -89 23 -31 c40 -51 118 -105 187 -127 54 -18 96 -22 255 -25 190
-4 264 -14 319 -42 36 -17 125 -12 217 14 46 13 67 26 92 55 37 43 237 383
357 604 l81 150 -4 71 c-4 81 -42 164 -83 183 -37 16 -132 13 -189 -7z"/>
<path d="M8716 8294 c-327 -45 -628 -138 -1001 -311 -468 -217 -775 -432 -924
-648 -106 -152 -144 -279 -144 -475 0 -146 13 -229 64 -407 26 -89 141 -390
172 -448 5 -11 54 -74 107 -140 53 -66 222 -277 375 -470 412 -518 622 -762
852 -986 287 -281 539 -393 883 -393 213 0 362 36 577 139 148 71 277 158 453
306 80 67 199 165 265 218 627 503 936 1147 936 1951 0 336 -25 492 -102 626
-32 57 -231 254 -384 383 -422 352 -890 576 -1340 641 -44 6 -91 14 -105 17
-58 13 -586 11 -684 -3z m502 -275 c318 -34 634 -149 877 -319 55 -38 153
-105 218 -147 392 -258 541 -415 621 -653 79 -236 45 -500 -107 -843 l-26 -57
-138 83 c-76 46 -185 114 -242 152 -170 112 -306 155 -494 155 -243 0 -449
-81 -604 -237 -34 -35 -75 -89 -92 -124 -71 -142 -21 -290 131 -391 412 -274
495 -313 647 -306 59 2 89 10 135 32 75 37 195 151 282 268 74 98 113 125 196
135 l51 6 -8 -39 c-28 -151 -70 -224 -255 -437 -228 -265 -607 -583 -928 -779
-384 -234 -723 -165 -1134 231 -198 190 -333 374 -468 634 -39 74 -70 136 -70
138 0 3 71 -10 158 -28 196 -40 323 -44 389 -12 24 12 77 57 122 105 l79 85
20 -29 c45 -63 66 -141 87 -327 20 -171 37 -242 78 -319 30 -57 100 -136 137
-156 17 -9 20 -1 40 81 11 49 26 129 32 177 13 105 5 341 -16 467 -14 86 -127
616 -132 624 -2 2 -63 -40 -136 -92 l-133 -96 -25 24 c-19 18 -29 43 -37 88
-22 131 -98 239 -205 291 -63 31 -183 55 -273 56 -33 0 -121 10 -195 21 -188
30 -345 30 -430 1 -36 -12 -85 -36 -110 -52 l-45 -30 -17 23 c-84 110 -150
284 -151 397 -2 153 54 261 223 430 548 548 1290 841 1948 769z"/>
</g>
</svg>
