<?xml version="1.0" encoding="UTF-8"?>
<svg width="1950px" height="2113px" viewBox="0 0 1950 2113" version="1.1" xmlns="http://www.w3.org/2000/svg" xmlns:xlink="http://www.w3.org/1999/xlink">
    <!-- Generator: Sketch 50.2 (55047) - http://www.bohemiancoding.com/sketch -->
    <title>daisyface</title>
    <desc>Created with Sketch.</desc>
    <defs>
        <linearGradient x1="-6.6981755%" y1="41.7745984%" x2="-17.8364118%" y2="41.7745978%" id="linearGradient-1">
            <stop stop-color="#FF87F1" offset="0%"></stop>
            <stop stop-color="#FF5959" offset="100%"></stop>
        </linearGradient>
    </defs>
    <g id="Page-1" stroke="none" stroke-width="1" fill="none" fill-rule="evenodd">
        <g id="daisyface" fill="url(#linearGradient-1)" fill-rule="nonzero">
            <g id="Group" transform="translate(975.250000, 1056.200000) scale(-1, 1) rotate(-180.000000) translate(-975.250000, -1056.200000) translate(0.800000, 0.000000)">
                <path d="M1015.2,2111.7 C1005.6,2110.9 987.9,2107.3 977.6,2103.9 C957.9,2097.4 943.7,2089.7 922.2,2073.6 C908.1,2063 888,2051.3 857.2,2035.9 C753.7,1984.1 709.4,1959.4 660.2,1926.4 C583.3,1874.6 527.8,1818.1 499,1762 C480.4,1725.9 471.4,1701.4 449.6,1627.9 C419.6,1527 401.9,1481.5 373.6,1433.4 C342.3,1380 318.1,1334.1 296,1286.4 C236.3,1157.7 196.8,1028.7 175.3,892.9 C169.7,857.4 167.3,838.1 163.2,794.4 C162.1,782.6 160.9,771.1 160.7,768.9 C160.4,766.7 159.6,758.8 158.7,751.4 C157.9,744 156.7,734.8 156.2,730.9 C155.6,727.1 154.7,720.5 154.1,716.4 C146.7,665 134.7,617.4 118.7,574.9 C109.1,549.5 80.8,476.9 55.4,412.4 C41.7,377.5 27.4,341.3 23.7,331.9 C2.6,278.2 0,269 0,248.3 C0.1,215.6 15.7,184.5 49.1,150.1 C76.4,122.1 135.6,84.3 194.5,57.2 C254.9,29.6 325.9,10.2 391.7,3.4 C397.8,2.8 403.7,2.1 405,1.9 C409.7,1.1 431.1,3.60822483e-16 439.2,0.1 C443.9,0.2 455.6,0.3 465.2,0.4 C481.1,0.5 483.4,0.8 489.7,3 C493.6,4.3 499.4,6.2 502.7,7 C508.5,8.6 523.3,16.1 525.2,18.5 C526.2,19.7 539.6,27.6 546.1,30.8 C549.7,32.6 554.5,35.3 556.6,36.7 C559.5,38.7 561.7,39.4 565.2,39.4 C569.7,39.4 570.3,39.7 575.8,45.4 C579,48.7 582.2,51.4 582.9,51.4 C583.6,51.4 584.2,51.8 584.2,52.3 C584.2,52.8 587,55.3 590.3,57.8 C598,63.6 599.7,65.7 602.7,73.7 C604,77.3 607.8,85.7 611,92.5 C621.7,114.7 624.7,122.5 626.9,133.4 C627.2,134.8 628.4,138.6 629.7,141.9 C631,145.2 632.5,151.1 633.1,154.9 C633.7,158.8 634.8,164.8 635.6,168.4 C638,178.8 639.1,185.1 640.7,198.4 C643.7,222.4 644.1,227.1 645.2,256.4 C645.8,272.6 646.4,286.8 646.4,287.9 C646.5,289 647.1,297.8 647.8,307.4 C648.6,317 649.2,326 649.2,327.4 C649.2,331.4 654.1,338 658.2,339.9 C662.5,341.9 668.7,341.7 672.2,339.6 C673.6,338.7 676.6,335.9 679,333.3 C688.3,323 687,323.5 729.7,313.2 L768.7,303.9 L797.7,303.6 C825.8,303.2 832.8,303.7 844.7,306.6 C850.3,308 852.1,308.3 857.1,309 C859.5,309.3 862.7,310.1 864.1,310.8 C867.7,312.6 877.1,314.2 887.3,314.8 C893.9,315.2 896.9,315.9 900.7,317.8 C906,320.6 915.2,321.3 923.4,319.4 C925.8,318.9 933.1,318 939.7,317.4 C950.3,316.3 968.4,312.6 971.2,310.9 C971.8,310.5 975,310.3 978.2,310.3 C981.5,310.3 985.8,309.6 987.7,308.8 C989.6,308.1 992.7,307.4 994.5,307.4 C996.4,307.4 1004.1,305.8 1011.7,303.9 C1024.7,300.6 1026.7,300.4 1044.1,300.2 C1063.1,299.9 1072.6,300.9 1079.4,303.8 C1081.5,304.7 1085.1,305.4 1087.5,305.4 C1090.6,305.4 1092.4,306 1093.7,307.4 C1097.6,311.7 1105.7,313.7 1121.2,314.1 C1130.1,314.3 1137.1,315 1139.2,315.9 C1142.4,317.1 1146.6,318.2 1154.6,319.9 C1156.3,320.3 1158.7,321.3 1160.1,322.3 C1164.9,325.7 1178.4,332.4 1180.3,332.4 C1181.4,332.4 1186.4,334.4 1191.5,336.8 C1196.7,339.3 1202.8,341.5 1205.7,341.8 C1208.5,342.1 1213.4,342.9 1216.7,343.5 C1229.5,345.8 1230.8,345.8 1235,343.4 C1238.8,341.3 1243.2,335.2 1243.2,332.2 C1243.2,331.5 1244.7,327 1246.6,322.4 C1249.2,315.8 1250.1,311.9 1250.6,304.9 C1251.3,292.3 1253,279 1254.2,275.9 C1254.8,274.4 1255.2,270.9 1255.2,267.9 C1255.2,263.4 1256.3,260.2 1262.3,247.2 C1271.8,226.8 1272.4,225.3 1281.1,199.5 C1286.3,184.2 1287.9,181.7 1299.2,170.3 C1305,164.4 1310.8,157.8 1312.2,155.6 C1313.6,153.4 1315.8,150.8 1317.2,149.9 C1318.6,149 1322.3,144.6 1325.5,140.3 C1328.6,135.9 1332,132.1 1333,131.8 C1336.4,130.8 1343.2,127.1 1343.2,126.2 C1343.2,125.8 1345.8,123.7 1349,121.7 C1352.1,119.7 1355.1,117.4 1355.5,116.7 C1356.6,114.9 1364.6,111.4 1367.6,111.4 C1368.8,111.4 1371.9,110.1 1374.3,108.5 C1376.8,106.9 1380.6,104.9 1382.8,104 C1390.6,100.6 1397.7,96.8 1401.6,93.9 C1403.9,92.2 1407.7,90.2 1410.2,89.5 C1412.7,88.8 1417.9,87.1 1421.7,85.8 C1425.6,84.5 1431.6,83 1435.2,82.4 C1450.2,80.3 1461.9,78.3 1465.2,77.4 C1467.1,76.9 1471,76 1473.7,75.3 C1476.5,74.7 1481.6,73.1 1485.2,71.9 C1491,69.9 1492.6,69.8 1500.1,70.6 C1505.5,71.2 1509.5,71.2 1511.1,70.5 C1516.6,68.4 1524.4,67.4 1542.2,66.4 C1568,65 1575.4,65.2 1585.6,67.4 C1590.6,68.5 1595.7,69.4 1596.9,69.4 C1598.3,69.4 1600.8,71 1603.1,73.3 C1609.7,80 1623,85.9 1644.1,91.4 C1712.6,109.3 1763.9,132.4 1814,168.1 C1821.9,173.7 1829.8,178.9 1831.6,179.5 C1834.2,180.4 1835.6,182.1 1838.4,187.8 C1840.4,191.7 1842.7,196.5 1843.6,198.6 C1844.4,200.6 1847.1,204.9 1849.5,208.1 C1851.9,211.3 1856.1,217.5 1858.7,221.9 C1861.4,226.3 1864.8,231.5 1866.4,233.4 C1867.9,235.3 1869.2,237.4 1869.2,238 C1869.2,238.7 1869.6,239.4 1870,239.6 C1871,240 1881.2,255.4 1883.6,260.1 C1884.5,261.9 1885.2,263.9 1885.2,264.6 C1885.2,265.3 1886.3,268.6 1887.7,271.9 C1889,275.2 1890.2,278.7 1890.2,279.7 C1890.2,280.8 1890.8,283 1891.6,284.7 C1892.3,286.5 1893.6,289.7 1894.5,291.9 C1895.3,294.1 1897.3,299.3 1899,303.4 C1900.6,307.5 1902.5,312.3 1903.1,313.9 C1903.8,315.6 1905.4,318.3 1906.8,319.9 C1908.2,321.6 1910.5,325 1911.8,327.5 C1914.1,332.1 1921.2,359.1 1921.2,363.4 C1921.2,364.6 1922.3,368.7 1923.6,372.3 C1924.9,376 1926.3,381.2 1926.7,384 C1927.1,386.7 1928.3,392.3 1929.4,396.4 C1931,402.2 1931.6,408.8 1932.2,425.5 C1932.6,437.5 1933.3,447.8 1933.7,448.5 C1934.2,449.2 1934.9,451.4 1935.3,453.3 C1935.7,455.3 1937.4,463.4 1939.1,471.4 C1941.3,481.5 1942.2,488.5 1942.2,494.9 C1942.2,501.9 1942.7,505.5 1944.4,510 C1946.3,515.2 1946.6,518.6 1947.1,537.4 C1947.6,553.5 1947.4,560.8 1946.3,566.4 C1944.1,578.1 1944.3,622.7 1946.5,643.9 C1948.6,663.1 1949.5,713.5 1948.2,732.4 C1946.2,760.2 1944.4,775.5 1940.6,798.9 C1935.4,830.4 1930,852.7 1915.6,900.6 C1884.7,1004 1853.2,1101.6 1820.5,1195.3 C1800.3,1253.4 1793.8,1276.2 1785.8,1316.6 C1780,1345.6 1777.1,1367.8 1772.2,1421.4 C1769.9,1446.7 1763.4,1469.9 1752.9,1490.7 C1740.5,1515.1 1731.5,1525.6 1690.7,1562.5 C1660.5,1590 1613.4,1636.3 1594.7,1656.9 C1560.7,1694.4 1543.5,1721.3 1507.2,1793.6 C1496.2,1815.4 1484.7,1837.4 1481.6,1842.6 C1461.6,1875.8 1433.9,1905.7 1399.8,1930.9 C1393.7,1935.3 1377.9,1945.9 1364.7,1954.4 C1322.3,1981.5 1283.3,2008.4 1249.3,2034.1 C1223.8,2053.5 1208.6,2063.2 1187.2,2073.9 C1132.8,2101.2 1066.5,2115.8 1015.2,2111.7 Z M1035.8,2066.4 C1040.1,2065.3 1047.5,2062.6 1052.2,2060.4 C1060.5,2056.6 1067.4,2055.2 1078.7,2055.1 C1084.5,2055.1 1093.2,2056.9 1096.9,2059 C1100,2060.8 1100.5,2060.8 1112.2,2059.1 C1154.5,2053 1190.1,2037.1 1223.7,2009.5 C1229.8,2004.5 1235,2000.4 1235.3,2000.4 C1236.4,2000.4 1242.9,1990 1244.1,1986.2 C1245,1983.5 1246.6,1981.7 1250.2,1979.4 C1255.2,1976.2 1260.5,1970.4 1264.2,1964.2 C1265.6,1961.7 1269.2,1958.9 1277,1954.4 C1297,1942.6 1313,1931.8 1333.5,1916.1 C1336.2,1914.1 1339,1912.4 1339.7,1912.4 C1340.5,1912.4 1344.6,1911.2 1348.9,1909.8 C1357.4,1907 1365.2,1905.3 1365.2,1906.4 C1365.2,1906.7 1364.6,1907.6 1364,1908.3 C1359.8,1912.6 1383.7,1901.2 1395.2,1893.4 C1412.1,1881.8 1427.7,1864.2 1441.6,1841 C1445.2,1835 1453.4,1819.7 1459.8,1807.1 L1471.5,1784.1 L1468.1,1781.3 L1464.7,1778.5 L1461.9,1781.7 L1459.2,1784.9 L1459.8,1781.9 C1460.2,1780.3 1460.9,1777.8 1461.4,1776.5 C1461.9,1775.2 1462,1768.4 1461.6,1761.5 L1461,1748.9 L1469.2,1730.9 C1487.2,1691.3 1518.7,1612.3 1520.3,1602.9 L1521.5,1595.9 L1516.4,1585.4 C1508.4,1568.9 1507.8,1564.1 1508.6,1527.4 C1509.3,1493.5 1508.3,1478.3 1502.1,1435.9 C1493.4,1375.5 1480.8,1326.8 1452.9,1245.9 C1419.9,1150.1 1414.6,1127 1404.7,1035.9 C1397.4,969 1388.9,920.4 1377.7,880.9 C1363.3,830.4 1359.6,791.3 1364.6,743.2 C1368.2,709.3 1365.1,685.3 1354.2,662.7 C1347.4,648.4 1342.2,641.4 1325.2,623.9 C1305.3,603.3 1302.2,597.1 1286.7,548.9 C1282.5,535.7 1275.2,509.9 1270.6,491.6 C1256.9,437.2 1253,427.5 1240.1,414.5 C1225.6,399.8 1176.6,375.5 1140.7,365.1 C1112,356.8 1093,354 1063.2,354 C1030.6,353.9 1005.5,358 975.5,368.5 C937.7,381.6 932.8,382.7 913.7,382.7 C899,382.7 890.4,381.3 879.5,377.3 C830.2,359.1 800.1,352.5 771.2,353.7 C756.5,354.3 747.6,355.9 734.1,360.4 C708.9,368.8 680.2,388.6 650.7,417.9 C638,430.5 631.4,439.5 628.8,447.9 C628,450.7 626,466 624.5,481.9 C622.3,505.6 621.8,516.1 621.8,539.4 C621.7,566.9 621.9,568.6 624.9,586.4 C636.1,651.6 638.2,710.9 631.1,763.9 C626.6,797.5 620.5,822.4 606.2,865.6 C605.4,868.1 606,867.8 615,862.2 C633.9,850.3 644.3,847.1 650.9,851.3 C655.7,854.3 659.7,863.2 664.6,881.7 C667,890.6 671,904.4 673.5,912.4 C682.2,940.1 681.6,952.9 671.1,964.9 C666.7,969.9 655.2,977.3 647.4,980 C635.5,984.2 626.2,982.9 618.3,975.8 C612.4,970.5 609.6,965.3 603.4,948.4 C598.4,934.4 593.7,925.5 592.2,927 C590.8,928.4 585.5,945.3 583.5,954.6 C581.9,962.1 581.7,969.3 581.6,1026.4 C581.6,1061.3 581.2,1093.3 580.8,1097.4 C578.2,1124.4 574.3,1144 568,1162.2 C557.6,1192.5 541.1,1229.6 527.2,1253.8 C518.4,1269.3 506.8,1293.3 500.6,1308.9 C498,1315.5 488.4,1343.6 479.2,1371.4 C470,1399.2 459.8,1428.4 456.6,1436.4 C450.9,1450.6 450.8,1451.1 450.8,1460.4 C450.8,1468.2 451.8,1474 456.1,1492.9 C480.5,1599.6 504.6,1677.2 533.2,1741.9 C552.1,1784.6 575.4,1812 624.4,1849.1 C699.3,1905.6 772,1949.5 854.7,1987.9 C886.7,2002.8 905.3,2013.4 948.6,2041.4 C972.1,2056.6 988.5,2064.4 1003.3,2067.3 C1011.8,2069 1027.3,2068.5 1035.8,2066.4 Z M1534.1,1644.3 C1542.7,1642 1547.6,1638.5 1587.2,1606.9 C1646.4,1559.6 1687.2,1518.1 1707.9,1484.2 C1722.2,1460.8 1731.7,1434.5 1735.6,1407.4 C1736.5,1401.6 1737.6,1386.1 1738.1,1372.9 C1739.5,1338.2 1742.7,1317.2 1751.8,1281.3 C1757.3,1259.4 1762.2,1243.5 1785.5,1171.9 C1841.2,1000.6 1866.1,920.8 1889.3,839.5 C1899.6,803.6 1903.2,789 1906.1,772.1 C1912.9,733.1 1913.8,685.4 1908.6,641.4 C1904.2,603.4 1902.8,590.1 1898.2,539.6 C1890.6,456 1887.5,431.8 1880.7,401.6 C1862.9,323 1828.7,257.5 1778.3,206.1 C1728.5,155.2 1666.7,124.1 1593.7,113.5 C1532.7,104.5 1483.5,111.1 1436.2,134.5 C1407.7,148.6 1387.9,163.4 1360.2,191.3 C1338.8,212.7 1328,226.5 1319.4,243.3 C1308.5,264.5 1304.8,279.4 1304.7,302.4 C1304.7,324.5 1307.4,336.9 1317.3,360.1 C1322.1,371.5 1323.7,379.1 1325.2,398.4 C1329.3,452.8 1340.4,491.2 1364.4,534.2 C1408,612.4 1430.5,676.1 1444.8,762.4 C1452.6,809.8 1457.1,829 1475.5,893.4 C1488.2,937.9 1489.5,944.6 1489.6,966.4 C1489.6,985.7 1488.7,991.8 1482.2,1017.7 C1474.2,1049.3 1472.7,1061.2 1472.7,1092.9 C1472.7,1130.6 1474.1,1139.2 1490,1194.9 C1506.4,1252.2 1517,1294.1 1524.7,1331.4 C1529.1,1352.8 1538.2,1406.5 1541.6,1430.9 C1551.6,1503.1 1549.3,1550.4 1532.7,1609.9 C1530.3,1618.7 1527.8,1629.1 1527.2,1632.9 C1526.7,1636.8 1526,1641.4 1525.7,1643.2 C1525.4,1644.9 1525.4,1646.4 1525.8,1646.4 C1526.2,1646.4 1530,1645.5 1534.1,1644.3 Z M394,1331.4 C396.8,1320.3 397.7,1313.8 401.2,1273.9 C409.1,1184.6 408.6,1196.1 408.7,1109.9 C408.8,1010.3 408.6,1012.8 425.6,950.4 C435.7,913.2 439.7,896.9 446.7,863.4 C452.7,835.2 453.9,825 452.4,814.5 C451.2,806.3 447.2,793 445.3,791.1 C443.2,789 414.8,817.2 402.2,833.9 C388.3,852.4 377.9,871.4 368.1,896 C361.5,912.8 359.9,915.7 355.5,919.3 C352.4,921.8 339.9,927.6 335.4,928.6 C334.4,928.8 333,924.9 330.7,915.4 C325.8,896 326,891.6 332.3,870.7 C343.5,833.4 369.2,760.1 376.7,743.9 C381.7,733 387.8,725.7 413.7,699.9 C437.1,676.4 438,675.4 452.1,655 C489.7,600.4 535.2,531.2 542.8,516.9 C547.3,508.5 566.1,453.7 572.6,429.9 C587.2,376.4 592.9,331.8 591.9,277.9 C590.7,212.6 579.3,160.3 554.7,107.8 C538.6,73.3 513.4,55 465.8,43.3 C445.8,38.4 433,37 409.7,37 C365.6,37 332.5,44.4 251.2,72.6 C205.7,88.4 192.9,93.5 166.7,106.4 C128.5,125.3 101.1,144.4 75.7,170 C53.9,191.9 42.1,214.2 39,239 C37.7,250.1 38.8,262.7 42.2,275.9 C46.9,293.5 73,350.3 94.2,388.9 C135.2,463.6 166.4,543.6 186.2,624.9 C194.7,659.8 199.2,687 205.7,744.4 C207.6,761.7 210.6,786.9 212.2,800.4 C213.8,813.9 217.2,844.5 219.7,868.4 C227.9,946.5 232.4,977.2 241.8,1019.5 C261.5,1108.2 288.3,1182.1 323.8,1245.4 C336.8,1268.6 351.3,1295.2 365.2,1321.2 L377.7,1344.4 L384.2,1344.2 L390.7,1343.9 L394,1331.4 Z M577.5,814.7 C591,785.6 595.9,760.8 594.9,725.4 C594.3,703.4 592.5,689.1 585.2,647.4 C582.4,631.8 579.4,612.5 578.5,604.7 C577.5,596.8 576.4,590.4 575.9,590.4 C573.5,590.4 563.2,596.5 558.7,600.6 C549.1,609.3 546.3,617.5 543.8,642.9 C535.4,727.7 543.4,787.2 567.3,819.2 C569.5,822 571.6,824.4 572.1,824.4 C572.5,824.4 575,820 577.5,814.7 Z" id="Shape"></path>
                <path d="M1332.3,1791.4 C1331.4,1790.9 1331.1,1787.8 1331.4,1779.7 L1331.7,1768.7 L1339.6,1756.9 C1355.2,1733.4 1374.8,1708.4 1384,1700.4 C1388,1696.8 1418.8,1680.6 1419.7,1681.6 C1420.3,1682.3 1403,1726.1 1398.8,1734.5 C1390.3,1751.3 1375.4,1773.1 1363.4,1786.4 L1358.5,1791.9 L1346,1792.1 C1339.1,1792.2 1333,1791.9 1332.3,1791.4 Z" id="Shape"></path>
                <path d="M593.4,1775.8 C590.5,1774.4 586.7,1771.3 584.8,1769.1 C580.9,1764.2 543.5,1706 533.6,1689.4 C527,1678.2 526.8,1677.7 526.8,1670.9 C526.7,1667 527.3,1662.4 528.1,1660.6 C529.9,1656.4 535.7,1653.3 543.1,1652.7 C548,1652.2 549.9,1652.7 557.7,1655.9 C573.8,1662.6 588.6,1672.4 596.6,1681.7 C609.2,1696.6 613.5,1710.5 619.2,1754.8 C620.3,1763.5 621.5,1771.6 621.8,1772.8 C622.2,1774.7 621.6,1775.2 616.9,1776.7 C608.7,1779.3 599.7,1778.9 593.4,1775.8 Z" id="Shape"></path>
                <path d="M923.1,1737.2 C919.5,1731 916.1,1724.6 915.4,1723.1 C914,1719.8 913.9,1613.6 915.3,1590.9 C916.9,1565.3 920.1,1542.9 924.8,1525.4 C927.7,1514.5 929.8,1510.6 937.8,1501.1 L943.5,1494.3 L946.4,1497.1 L949.4,1499.9 L948.8,1588.9 C948.5,1637.9 948,1680.6 947.7,1683.9 C947.4,1687.2 946.7,1695.8 946.2,1703.1 C945,1718.5 944.5,1720 936,1736.2 L929.5,1748.4 L923.1,1737.2 Z" id="Shape"></path>
                <path d="M631.7,1656.8 C625.5,1655.3 614.4,1650.9 608.9,1647.7 C597.9,1641.3 591.8,1635.8 569,1612.2 C556.8,1599.4 537.9,1580 527.1,1568.9 C502.6,1544 500.8,1541.3 483.7,1504.4 C475.5,1486.6 474.4,1481.5 476.7,1471.6 C481.3,1452.1 493.3,1439.4 507.1,1439.4 C517.5,1439.4 524,1444.6 537.7,1463.9 C546.6,1476.4 553.5,1490.1 557.1,1502.4 C565.3,1530.2 575.8,1543.9 606.2,1566.8 C642.5,1594.1 671.9,1606.4 701.5,1606.4 L708.2,1606.4 L708.2,1610.9 L708.2,1615.4 L698,1622 C690.5,1626.8 684.6,1631.7 676.5,1640 C662.2,1654.6 658.2,1656.7 643.7,1657 C638.2,1657.2 632.8,1657.1 631.7,1656.8 Z" id="Shape"></path>
                <path d="M1234.7,1645.4 C1239.3,1636.2 1246.7,1628.8 1255.2,1624.6 C1258.8,1622.8 1267.9,1619.8 1275.4,1617.9 C1283,1615.9 1292.2,1613 1295.8,1611.3 C1308.3,1605.8 1328.9,1598.5 1344.3,1594.3 C1355.8,1591.2 1362.8,1588.6 1372.2,1583.9 C1379.1,1580.5 1386.4,1577.1 1388.5,1576.4 C1394.6,1574.5 1405.7,1575.5 1412.2,1578.6 C1422.6,1583.5 1422.6,1583.4 1414.1,1589.1 C1355.5,1628.4 1298.1,1649.8 1245.4,1652.1 L1231,1652.7 L1234.7,1645.4 Z" id="Shape"></path>
                <path d="M1118.7,1639.3 C1112.5,1639 1107.6,1638.2 1105.7,1637.2 C1101.7,1635 1061.1,1593.9 1053.3,1584 C1043.6,1571.7 1037.4,1562 1032.1,1551 C1024.9,1535.8 1023.7,1530.5 1023.7,1512.9 C1023.7,1499.1 1023.9,1497.3 1026.4,1490.2 C1030.2,1479.5 1036.5,1469.3 1044.3,1461.4 C1050.5,1455.2 1063.7,1445.4 1066,1445.4 C1069,1445.4 1068.9,1464.1 1065.6,1488 C1061.9,1515 1063.1,1528.4 1070.3,1540.1 C1071.5,1542 1087.4,1562.8 1105.7,1586.4 L1139,1629.3 L1137,1634.8 C1135,1640 1134.7,1640.4 1131.8,1640.1 C1130.1,1640 1124.2,1639.6 1118.7,1639.3 Z" id="Shape"></path>
                <path d="M818.7,1562.8 C815.3,1554.7 814,1547.4 813.5,1533.4 C813,1520.8 813.2,1517.8 815,1510.7 C818.6,1496.6 823.4,1491.4 833,1491.4 C838.5,1491.4 842.2,1493.6 844.7,1498.4 C849.5,1507.6 845.1,1532.4 836.1,1547.7 C831.7,1555 822.7,1566.4 821.2,1566.4 C820.7,1566.4 819.5,1564.8 818.7,1562.8 Z" id="Shape"></path>
                <path d="M1257.1,1504 C1245.7,1496.7 1234.9,1489.5 1233.1,1488 C1223.3,1479.9 1215,1465.7 1208.1,1445.4 C1204.6,1435.1 1203.9,1431.5 1203.8,1424.9 C1203.7,1415.2 1205.1,1412 1215.7,1398.8 C1224.4,1388 1226,1385 1230,1371.9 C1238,1346.1 1248,1340.4 1269.9,1349.2 C1275.3,1351.4 1285.6,1354.8 1292.7,1356.9 C1307,1360.9 1331.6,1369.8 1343.1,1375.1 C1359.8,1382.7 1377.9,1397.9 1383.2,1409 C1386.5,1415.8 1386.9,1423.5 1384.3,1430.4 C1378.8,1445 1360.8,1460.6 1307.7,1496.9 C1293.4,1506.7 1281,1515.3 1280.1,1516 C1279.3,1516.8 1278.4,1517.4 1278.1,1517.3 C1277.9,1517.3 1268.4,1511.3 1257.1,1504 Z" id="Shape"></path>
                <path d="M635.1,1477 C627.2,1475.3 617.1,1470.8 611.8,1466.5 C601.9,1458.5 557.7,1397.1 552.7,1384.4 C550.4,1378.4 550.6,1368.3 553.2,1355.4 C558.2,1331 569.6,1314.4 588.1,1304.5 C595.9,1300.4 624.2,1290 633.2,1288 C643.6,1285.6 654.3,1285.7 661.4,1288.2 C669.3,1291 674.9,1295.1 683,1304.2 C688.5,1310.2 692,1313 698.9,1316.8 C710.3,1323.2 720.1,1332.8 724.2,1341.6 C727.7,1349.2 730.2,1359.6 730.2,1367.4 C730.2,1374 727.8,1390.8 726.2,1394.9 C725.6,1396.4 724.9,1400.4 724.6,1403.6 C723,1422.4 710.8,1449 698.4,1461.2 C692.6,1466.8 682.6,1472.3 672.7,1475.2 C662.7,1478.2 645,1479 635.1,1477 Z" id="Shape"></path>
                <path d="M986.2,1425.5 C986.2,1425 987.1,1420.3 988.2,1414.9 L990.2,1405.2 L1003.9,1387.6 C1028.7,1355.6 1035.3,1348.2 1052.9,1332.8 C1068.9,1318.9 1079.5,1307.2 1088.4,1294 C1095.9,1282.7 1099.9,1274.8 1107.7,1255.9 C1119.2,1227.8 1131.7,1208.8 1152.8,1187.5 L1165.2,1175 L1175.2,1190.3 C1180.7,1198.6 1185.2,1205.7 1185.2,1206 C1185.2,1206.5 1163.5,1242.5 1154.2,1257.4 C1133.1,1291.4 1105.8,1322.1 1071.7,1350.4 C1054.6,1364.7 1050.7,1368.5 1037.2,1384.4 C1019.6,1405.3 1007,1416.3 993,1423.5 C986.7,1426.7 986.2,1426.8 986.2,1425.5 Z" id="Shape"></path>
                <path d="M814.5,1338.3 C805.2,1333.7 793.6,1319.1 775.6,1289.4 C754.8,1255.2 728.8,1198 704.5,1132.9 C696.8,1112.5 696.8,1103.8 704.1,1093.6 C707.8,1088.6 717.9,1080.7 719.2,1082 C722,1084.9 739.8,1122.5 745.1,1136.9 C757.3,1169.7 765.4,1189.1 776.2,1210.9 C787.7,1234.3 798.2,1251.2 811.7,1268.5 C821.2,1280.5 825.5,1287.9 831.1,1301.5 C836,1313.8 837.6,1320.4 836.9,1326.5 C835.5,1338.1 825.2,1343.6 814.5,1338.3 Z" id="Shape"></path>
                <path d="M1395.7,1312.6 C1389.6,1310.5 1382.9,1306 1359.2,1288 C1342.4,1275.3 1322,1261.4 1283.9,1237 L1270.2,1228.1 L1272.5,1225 C1276.5,1219.9 1284.3,1214.5 1291.2,1212.3 C1296.6,1210.5 1300.8,1210.1 1316.7,1209.8 C1335.7,1209.4 1343.1,1208.4 1348.6,1205.6 C1352.2,1203.9 1361.1,1204.4 1370.3,1207 C1374.9,1208.3 1377,1209.6 1379.5,1212.5 C1383.2,1216.8 1403.2,1250.8 1415.2,1272.9 L1423.3,1287.9 L1422.9,1295 C1422.5,1303.1 1418.7,1311.4 1414.6,1313.3 C1410.9,1314.9 1401.4,1314.6 1395.7,1312.6 Z" id="Shape"></path>
                <path d="M870.8,828.8 C838.1,824.3 808,815 770.7,797.7 C723.9,776 693.2,754.5 678.3,732.9 C667.7,717.7 663.9,705 663.9,685.4 C663.9,670.8 665.2,662.5 670.3,644.7 C672.9,635.8 684.4,605.7 687.5,599.9 C688,598.8 692.9,592.5 698.2,585.9 C703.5,579.3 720.4,558.2 735.7,538.9 C776.9,487.1 797.9,462.7 820.9,440.3 C849.6,412.2 874.8,401 909.2,401 C930.5,401 945.4,404.6 966.9,414.9 C981.7,422 994.6,430.7 1012.2,445.5 C1020.2,452.2 1032.1,462 1038.7,467.3 C1101.4,517.6 1132.3,582 1132.3,662.4 C1132.3,696 1129.8,711.6 1122.1,725 C1118.9,730.7 1099,750.4 1083.7,763.3 C1041.5,798.5 994.7,820.9 949.7,827.4 C945.3,828 940.6,828.8 939.2,829.1 C933.4,830.4 880.6,830.2 870.8,828.8 Z M921,801.3 C952.8,797.9 984.4,786.4 1008.7,769.4 C1014.2,765.6 1024,758.9 1030.5,754.7 C1069.7,728.9 1084.6,713.2 1092.6,689.4 C1100.5,665.8 1097.1,639.4 1081.9,605.1 L1079.3,599.4 L1065.5,607.7 C1057.9,612.3 1047,619.1 1041.3,622.9 C1024.3,634.1 1010.7,638.4 991.9,638.4 C967.6,638.4 947,630.3 931.5,614.7 C928.1,611.2 924,605.8 922.3,602.3 C915.2,588.1 920.2,573.3 935.4,563.2 C976.6,535.8 984.9,531.9 1000.1,532.6 C1006,532.8 1009,533.6 1013.6,535.8 C1021.1,539.5 1033.1,550.9 1041.8,562.6 C1049.2,572.4 1053.1,575.1 1061.4,576.1 L1066.5,576.7 L1065.7,572.8 C1062.9,557.7 1058.7,550.4 1040.2,529.1 C1017.4,502.6 979.5,470.8 947.4,451.2 C909,427.8 875.1,434.7 834,474.3 C814.2,493.3 800.7,511.7 787.2,537.7 C783.3,545.1 780.2,551.3 780.2,551.5 C780.2,551.8 787.3,550.5 796,548.7 C815.6,544.7 828.3,544.3 834.9,547.5 C837.3,548.7 842.6,553.2 847.1,558 L855,566.5 L857,563.6 C861.5,557.3 863.6,549.5 865.7,530.9 C867.7,513.8 869.4,506.7 873.5,499 C876.5,493.3 883.5,485.4 887.2,483.4 C888.9,482.5 889.2,483.3 891.2,491.5 C892.3,496.4 893.8,504.4 894.4,509.2 C895.7,519.7 894.9,543.3 892.8,555.9 C891.4,564.5 880.1,617.5 879.6,618.3 C879.4,618.5 873.3,614.3 866,609.1 L852.7,599.5 L850.2,601.9 C848.3,603.7 847.3,606.2 846.5,610.7 C844.3,623.8 836.7,634.6 826,639.8 C819.7,642.9 807.7,645.3 798.7,645.4 C795.4,645.4 786.6,646.4 779.2,647.5 C760.4,650.5 744.7,650.5 736.2,647.6 C732.6,646.4 727.7,644 725.2,642.4 L720.7,639.4 L719,641.7 C710.6,652.7 704,670.1 703.9,681.4 C703.7,696.7 709.3,707.5 726.2,724.4 C781,779.2 855.2,808.5 921,801.3 Z" id="Shape"></path>
            </g>
        </g>
    </g>
</svg>